<svg width="400" height="400" viewBox="0 0 400 400" fill="none" xmlns="http://www.w3.org/2000/svg">
<rect width="400" height="400" fill="#F3F4F6"/>
<path d="M200 150C165.363 150 137.5 177.863 137.5 212.5C137.5 247.137 165.363 275 200 275C234.637 275 262.5 247.137 262.5 212.5C262.5 177.863 234.637 150 200 150Z" fill="#9CA3AF"/>
<path d="M150 300C150 289.462 158.462 281 169 281H231C241.538 281 250 289.462 250 300V350H250H150V300Z" fill="#9CA3AF"/>
<path d="M120 200H280V220H120V200Z" fill="#9CA3AF"/>
<path d="M120 240H280V260H120V240Z" fill="#9CA3AF"/>
<circle cx="200" cy="200" r="3" fill="#6B7280"/>
</svg>
